<?xml version="1.0" encoding="utf-8"?>
<!-- Generator: Adobe Illustrator 23.0.4, SVG Export Plug-In . SVG Version: 6.00 Build 0)  -->
<svg version="1.1" id="Layer_1" xmlns="http://www.w3.org/2000/svg" xmlns:xlink="http://www.w3.org/1999/xlink" x="0px" y="0px"
	 viewBox="0 0 400 166.1" style="enable-background:new 0 0 400 166.1;" xml:space="preserve">
<style type="text/css">
	.st0{fill:#1A1818;}
	.st1{fill:#990C21;}
	.st2{fill-rule:evenodd;clip-rule:evenodd;fill:#1A1818;}
</style>
<g id="Group_18" transform="translate(-661 71)">
	<g id="Group_314" transform="translate(661 -71)">
		<path id="Path_197" class="st0" d="M224.5,70.6v33.2h-6.3V85.7c0-1.4,0.4-9.8,0.4-9.8h-0.2l-11.5,21.6L195.4,76h-0.2
			c0,0,0.4,8.3,0.4,9.7v18.1h-6.3V70.6h10.2l7.2,15.2h0.2l7-15.2L224.5,70.6z"/>
		<path id="Path_198" class="st0" d="M236.2,75.9v8.6h15.5v4.6h-15.5v9.4h16.5v5.3H230V70.6h22.6v5.3L236.2,75.9z"/>
		<path id="Path_199" class="st0" d="M257.4,103.8V70.6h16.3c4.6,0,7.9,1,9.7,3c1.8,2,2.8,5.6,2.8,10.6c0,8.3-0.7,13.6-2.2,15.9
			c-1.5,2.4-4.8,3.5-10.1,3.5L257.4,103.8z M263.7,98.5h9c3,0,4.9-0.7,5.8-2.1s1.3-4.4,1.3-9.2c0-4.9-0.4-8-1.2-9.4
			c-0.8-1.3-2.7-2-5.6-2h-9.4L263.7,98.5z"/>
		<path id="Path_200" class="st0" d="M289.6,84.8h7.1v4.4h-7.1V84.8z"/>
		<path id="Path_201" class="st0" d="M306.2,75.9v8.6h15.5v4.6h-15.5v9.4h16.5v5.3h-22.8V70.6h22.7v5.3L306.2,75.9z"/>
		<path id="Path_202" class="st0" d="M358.1,70.6v33.2h-10.7L338,85.6c-0.5-0.9-1.2-2.5-2.2-4.8l-1.1-2.4l-1-2.4h-0.2l0.1,2.2
			l0.1,2.2l0,4.3v19h-6.3V70.6H338l8.6,16.8c0.8,1.5,1.6,3.3,2.7,5.4l1.3,2.7l1.3,2.7h0.2l-0.1-2.1l-0.1-2.1l0-4.3V70.6L358.1,70.6z
			"/>
		<path id="Path_203" class="st0" d="M377,84.7h14.6l0.1,8c0,4.8-0.9,7.9-2.7,9.2c-1.8,1.4-5.8,2.1-12.1,2.1
			c-5.7,0-9.5-0.9-11.4-2.8c-1.9-1.8-2.8-5.6-2.8-11.3c0-7.2,0.4-11.8,1.1-13.7c0.7-2.1,2.2-3.8,4.2-4.7c3.1-1,6.3-1.4,9.6-1.2
			c5.9,0,9.7,0.6,11.4,1.9c1.7,1.3,2.6,4,2.6,8.3h-6.4c-0.1-2.2-0.6-3.5-1.4-4c-2-0.7-4.1-1-6.3-0.8c-3.6,0-5.9,0.5-6.9,1.4
			c-1,0.9-1.5,3-1.5,6.4l0,3.3l0,4.3c0,3.3,0.5,5.4,1.4,6.3c1,0.9,3.2,1.3,6.7,1.3c2.2,0.3,4.5-0.1,6.5-1.1c0.9-0.8,1.4-2.6,1.4-5.4
			l0-2.8H377L377,84.7z"/>
		<path id="Path_204" class="st1" d="M154.8,0h-138C7.5,0,0,7.5,0,16.7v91.5c0,9.2,7.5,16.7,16.7,16.7h138c9.2,0,16.7-7.5,16.7-16.7
			V16.7C171.5,7.5,164,0,154.8,0z M163.8,108.3c0,5-4,9-9,9h-138c-5,0-9-4-9-9l0,0V16.7c0-5,4-9,9-9c0,0,0,0,0,0h138c5,0,9,4,9,9
			c0,0,0,0,0,0V108.3z"/>
		<g id="Group_305" transform="translate(50.156 10.26)">
			<g id="Group_304">
				<path id="Path_205" class="st2" d="M90.7,11.6H63.9l-0.1,0c-4.1,0.3-7.3,3.6-7.4,7.7c-0.1,4.2,3.3,7.6,7.5,7.7c0,0,0.1,0,0.1,0
					h26.3c2.2,0.1,4.3-0.6,5.9-2.2c1.5-1.5,2.3-3.5,2.2-5.5c-0.1-4.2-3.5-7.6-7.7-7.6L90.7,11.6L90.7,11.6z"/>
			</g>
		</g>
		<g id="Group_307" transform="translate(38.451 25.958)">
			<g id="Group_306">
				<path id="Path_206" class="st2" d="M50.7,29.2c-4.1,0.1-7.4,3.5-7.4,7.7c-0.1,4.1,3.2,7.5,7.3,7.6c0.1,0,0.2,0,0.3,0l51.3,0.1
					c2.2,0.1,4.4-0.8,6-2.4c2.9-3.1,2.8-7.9-0.3-10.8c-1.4-1.4-3.3-2.1-5.3-2.1L50.7,29.2L50.7,29.2z"/>
			</g>
		</g>
		<g id="Group_309" transform="translate(22.827 41.37)">
			<g id="Group_308">
				<path id="Path_207" class="st2" d="M33.3,46.6h-0.2c-4,0.3-7.2,3.5-7.4,7.6c-0.1,4.2,3.2,7.7,7.5,7.8c0,0,0.1,0,0.1,0h11.4
					l62.4,0.1h10.6c2.2,0.1,4.4-0.8,6-2.4c1.4-1.5,2.2-3.4,2.1-5.4c-0.1-4.2-3.5-7.6-7.7-7.6h-10.9l-62.4-0.1L33.3,46.6z"/>
			</g>
		</g>
		<g id="Group_311" transform="translate(10.804 10.225)">
			<g id="Group_310">
				<path id="Path_208" class="st2" d="M12.3,19.3L12.3,19.3l-0.2,11v55.4c0.1,4.2,3.5,7.5,7.7,7.6c4.1,0.1,7.6-3.2,7.7-7.3
					c0-0.1,0-0.2,0-0.3V36.9c2.3,2.1,17.9,16.9,17.9,16.9l0,0c1.1,1.2,2.7,1.9,4.3,1.8c1.7-0.1,3.3-0.9,4.4-2.2l0,0l30.7-28.9
					c1.3-1.3,2-3.1,1.9-5c0-1.9-0.6-3.8-1.7-5.3l0,0l0-0.1l0,0l-0.1-0.1h0c-0.9-1.2-2.3-2-3.8-2.2c-2.3-0.6-4.7-0.1-6.6,1.2
					l-0.1,0.1L49.5,37c-1-1-23.8-22.7-23.8-22.7c-2.6-3.2-7.4-3.7-10.6-1C13.3,14.7,12.3,16.9,12.3,19.3L12.3,19.3z"/>
			</g>
		</g>
		<g id="Group_312" transform="translate(185.556 33.621)">
			<path id="Path_209" class="st0" d="M211.7,37.8c1.5,0,2.7,1.2,2.7,2.7s-1.2,2.7-2.7,2.7c-1.5,0-2.7-1.2-2.7-2.7
				S210.2,37.8,211.7,37.8L211.7,37.8z M211.7,38.4c-1.2,0-2.2,1-2.2,2.2c0,1.2,1,2.2,2.2,2.2c1.2,0,2.1-0.9,2.1-2.1c0,0,0,0,0-0.1
				C213.8,39.4,212.9,38.4,211.7,38.4C211.7,38.4,211.7,38.4,211.7,38.4L211.7,38.4z M211.3,42h-0.6v-2.7c0.3-0.1,0.7-0.1,1-0.1
				c0.3,0,0.7,0,0.9,0.2c0.2,0.1,0.3,0.4,0.3,0.6c0,0.3-0.3,0.6-0.6,0.6v0c0.3,0.1,0.4,0.3,0.5,0.7c0,0.2,0.1,0.5,0.2,0.7h-0.7
				c-0.1-0.2-0.2-0.4-0.2-0.7c0-0.3-0.2-0.4-0.6-0.4h-0.3L211.3,42z M211.3,40.5h0.3c0.3,0,0.6-0.1,0.6-0.4c0-0.2-0.2-0.4-0.6-0.4
				c-0.1,0-0.2,0-0.3,0L211.3,40.5z"/>
		</g>
		<g id="Group_313" transform="translate(0.167 69.395)">
			<path id="Path_210" class="st0" d="M0.2,96.4l5-18h5l4.9,18h-4l-1-4H4.9l-1,4H0.2z M7.5,81.9L7.5,81.9l-1.8,7.8h3.6L7.5,81.9z"/>
			<path id="Path_211" class="st0" d="M22.4,96.4v-18h6.7c2.9,0,5.2,0.8,5.2,4.7c0.2,1.9-1.2,3.7-3.1,4v0c2.7,0.4,3.4,2.1,3.4,4.6
				c0,4.6-4,4.8-5.6,4.8L22.4,96.4z M26.1,85.8h2.5c1.1,0,2-0.9,2-2c0-0.1,0-0.2,0-0.3c0.1-1.2-0.8-2.2-2-2.3c-0.1,0-0.1,0-0.2,0
				h-2.3L26.1,85.8z M26.1,93.7h2.1c1.2,0.2,2.4-0.6,2.6-1.8c0-0.2,0-0.5,0-0.7c0-1.6-0.6-2.6-2.5-2.6h-2.2L26.1,93.7z"/>
			<path id="Path_212" class="st0" d="M41.3,96.4h-3.8v-18h7c2.6,0,4.2,1.6,4.2,4.7c0.3,2.1-1.2,4.1-3.3,4.4c0,0,0,0-0.1,0v0
				c1.8-0.1,3.2,1.3,3.3,3.1c0,0.1,0,0.3,0,0.4c0,1.8,0.1,3.5,0.4,5.3h-3.7c-0.4-1.1-0.5-2.3-0.4-3.5c0-2.1,0.2-4-2.7-4h-1
				L41.3,96.4z M41.3,86.2h1.7c1.5,0,1.9-1.5,1.9-2.6c0-1.7-0.7-2.4-1.9-2.4h-1.7V86.2z"/>
			<path id="Path_213" class="st0" d="M50,96.4l5-18h5l4.9,18h-4l-1-4h-5.1l-1,4H50z M57.3,81.9L57.3,81.9l-1.8,7.8h3.6L57.3,81.9z"
				/>
			<path id="Path_214" class="st0" d="M66.7,96.4v-18h5.1l4.8,12.5h0.1V78.4h3.5v18h-5l-4.9-13.2h-0.1v13.2H66.7z"/>
			<path id="Path_215" class="st0" d="M83.3,78.4h6.3c4.9,0,5.9,3.3,5.9,8.9c0,2.8,0.4,9.1-6,9.1h-6.1L83.3,78.4z M87.1,93.7h1.8
				c2.3,0,2.7-1.7,2.7-6.2c0-3.3,0-6.2-2.6-6.2h-1.9L87.1,93.7z"/>
			<path id="Path_216" class="st0" d="M103.9,87.4c0-4.8,0-9.3,6.2-9.3c6.2,0,6.2,4.5,6.2,9.3c0,4.7,0,9.3-6.2,9.3
				C103.9,96.7,103.9,92.1,103.9,87.4z M112.5,87.4c0-4.6-0.3-6.6-2.4-6.6s-2.4,2-2.4,6.6c0,4.6,0.3,6.6,2.4,6.6
				C112.2,94,112.5,92,112.5,87.4L112.5,87.4z"/>
			<path id="Path_217" class="st0" d="M119.2,96.4v-18h9.4v2.8H123v4.6h5.3v2.8H123v7.9L119.2,96.4z"/>
			<path id="Path_218" class="st0" d="M146.6,78.4v3h-4.2v15h-3.8v-15h-4.2v-3H146.6z"/>
			<path id="Path_219" class="st0" d="M156.5,85.6v-7.2h3.8v18h-3.8v-8h-4.3v8h-3.8v-18h3.8v7.2H156.5z"/>
			<path id="Path_220" class="st0" d="M163.6,96.4v-18h9.8v2.8h-6.1v4.4h5.6v2.8h-5.6v5.3h6.3v2.8L163.6,96.4z"/>
			<path id="Path_221" class="st0" d="M186.4,96.7c-4.7,0-5.5-2.7-5.3-5.9h3.8c0,1.7,0.1,3.2,2.1,3.2c1,0.1,1.8-0.7,1.9-1.7
				c0-0.1,0-0.2,0-0.4c0-3.2-7.6-3.4-7.6-8.8c0-2.8,1.3-5.1,5.9-5.1c3.7,0,5.5,1.6,5.2,5.4h-3.7c0-1.3-0.2-2.7-1.7-2.7
				c-1-0.1-1.8,0.6-1.9,1.5c0,0.1,0,0.2,0,0.4c0,3.4,7.6,3.1,7.6,8.8C192.7,96.2,189.3,96.7,186.4,96.7z"/>
			<path id="Path_222" class="st0" d="M194,96.4l5-18h5l4.9,18h-4l-1-4h-5.1l-1,4H194z M201.3,81.9L201.3,81.9l-1.8,7.8h3.6
				L201.3,81.9z"/>
			<path id="Path_223" class="st0" d="M210.6,96.4v-18h9.4v2.8h-5.6v4.6h5.3v2.8h-5.3v7.9L210.6,96.4z"/>
			<path id="Path_224" class="st0" d="M219.9,96.4l5-18h5l4.9,18h-4l-1-4h-5.1l-1,4H219.9z M227.1,81.9L227.1,81.9l-1.8,7.8h3.6
				L227.1,81.9z"/>
			<path id="Path_225" class="st0" d="M240.2,96.4h-3.8v-18h7c2.6,0,4.2,1.6,4.2,4.7c0.3,2.1-1.2,4.1-3.3,4.4c0,0,0,0-0.1,0v0
				c1.8-0.1,3.2,1.3,3.3,3.1c0,0.1,0,0.3,0,0.4c0,1.8,0.1,3.5,0.4,5.3h-3.7c-0.4-1.1-0.5-2.3-0.4-3.5c0-2.1,0.2-4-2.7-4h-1
				L240.2,96.4z M240.2,86.2h1.7c1.5,0,1.9-1.5,1.9-2.6c0-1.7-0.7-2.4-1.9-2.4h-1.7V86.2z"/>
			<path id="Path_226" class="st0" d="M250.3,96.4v-18h3.8v18H250.3z"/>
			<path id="Path_227" class="st0" d="M257.3,96.4v-18h3.8v15h5.6v3L257.3,96.4z"/>
			<path id="Path_228" class="st0" d="M267,96.4l5-18h5l4.9,18h-4l-1-4h-5.1l-1,4H267z M274.2,81.9L274.2,81.9l-1.8,7.8h3.6
				L274.2,81.9z"/>
			<path id="Path_229" class="st0" d="M283.6,96.4v-18h5.1l4.8,12.5h0.1V78.4h3.5v18h-5l-4.9-13.2h0v13.2H283.6z"/>
			<path id="Path_230" class="st0" d="M300.3,78.4h6.3c4.9,0,5.9,3.3,5.9,8.9c0,2.8,0.4,9.1-6,9.1h-6.1L300.3,78.4z M304,93.7h1.8
				c2.3,0,2.7-1.7,2.7-6.2c0-3.3,0-6.2-2.6-6.2H304L304,93.7z"/>
			<path id="Path_231" class="st0" d="M329.2,84c0-1.7-0.2-3.1-2.2-3.1c-2.3,0-2.3,3.2-2.3,6.7c0,5.6,0.6,6.6,2.7,6.6
				c0.6,0,1.3-0.1,1.9-0.4v-4h-2V87h5.8v9.1c-1.7,0.3-3.4,0.5-5.1,0.6c-6.3,0-7.1-2.6-7.1-9.4c0-4.5,0.2-9.1,6.4-9.1
				c2.8-0.4,5.4,1.6,5.8,4.4c0.1,0.5,0.1,0.9,0,1.4L329.2,84z"/>
			<path id="Path_232" class="st0" d="M339.9,96.4h-3.8v-18h7c2.6,0,4.2,1.6,4.2,4.7c0.3,2.1-1.2,4.1-3.3,4.4c0,0,0,0-0.1,0v0
				c1.8-0.1,3.2,1.3,3.3,3.1c0,0.1,0,0.3,0,0.4c0,1.8,0.1,3.5,0.4,5.3h-3.7c-0.4-1.1-0.5-2.3-0.4-3.5c0-2.1,0.2-4-2.7-4h-1
				L339.9,96.4z M339.9,86.2h1.7c1.5,0,1.9-1.5,1.9-2.6c0-1.7-0.7-2.4-1.9-2.4h-1.7V86.2z"/>
			<path id="Path_233" class="st0" d="M349.9,87.4c0-4.8,0-9.3,6.2-9.3c6.2,0,6.2,4.5,6.2,9.3c0,4.7,0,9.3-6.2,9.3
				C349.9,96.7,349.9,92.1,349.9,87.4z M358.5,87.4c0-4.6-0.3-6.6-2.4-6.6c-2.1,0-2.4,2-2.4,6.6c0,4.6,0.3,6.6,2.4,6.6
				S358.5,92,358.5,87.4z"/>
			<path id="Path_234" class="st0" d="M377.4,78.4v12.8c0,2.7-1.5,5.5-6.1,5.5c-4.1,0-6.1-2.1-6.1-5.5V78.4h3.8v12.5
				c0,2.2,0.9,3.1,2.3,3.1c1.6,0,2.4-1.1,2.4-3.1V78.4H377.4z"/>
			<path id="Path_235" class="st0" d="M380.5,78.4h6.8c3.4,0,4.8,2.1,4.8,5.4c0.4,2.5-1.4,4.9-3.9,5.3c-0.4,0.1-0.7,0.1-1.1,0h-2.8
				v7.3h-3.8V78.4z M384.3,86.3h2.1c1.1,0,1.9-1.2,1.9-2.4c0-1.5-0.4-2.7-2.1-2.7h-1.9V86.3z"/>
		</g>
	</g>
</g>
</svg>
